# xmcd
#
# Track frame offsets:
# 150
# 22074
# 47797
# 63066
# 83054
# 112952
# 132357
# 159586
# 176644
# 199779
#
# Disc length: 3069 seconds
#
#
# Revision: 0
# Processed by: cddbd v1.5.2PL0 Copyright (c) Steve Scherf et al.
# Submitted via: FreeRIP 2.944 
#
DISCID=800bfb0a
DTITLE=bagge and armer - live
DYEAR=1900
DGENRE=Blues
TTITLE0=bright lights big city
TTITLE1=how can a poor man stand such times and live
TTITLE2=t bone shuffle
TTITLE3=golden girl
TTITLE4=bring it on home to me
TTITLE5=long grey mare
TTITLE6=110 in the shade
TTITLE7=23 o clock blues
TTITLE8=never make your move too soon
TTITLE9=stormy monday
EXTD=
EXTT0=
EXTT1=
EXTT2=
EXTT3=
EXTT4=
EXTT5=
EXTT6=
EXTT7=
EXTT8=
EXTT9=
PLAYORDER=
